<svg xmlns="http://www.w3.org/2000/svg" viewBox="0 0 16.933 16.933"><path d="M8.467 280.596a.797.797 0 0 0-.793.793v1.067a1.32 1.32 0 0 0-.522.91c-.627.123-1.127.316-1.617.492-.49.175-.983.328-1.629.4a.797.797 0 0 0-.73-.486.797.797 0 0 0-.709.443 3.36 3.36 0 0 1-.997-.4.265.265 0 0 0-.15-.046c-.264 0-.365.343-.144.487 0 0 .496.327 1.227.486.04.169.135.316.264.425l-2.12 5.655a.264.264 0 0 0-.018.093s-.003.593.332 1.188c.335.594 1.045 1.193 2.314 1.193 1.269 0 1.98-.599 2.314-1.193.335-.595.332-1.188.332-1.188a.264.264 0 0 0-.017-.093l-2.12-5.655c.117-.1.204-.23.25-.38a7.304 7.304 0 0 0 1.78-.431c.487-.175.941-.348 1.496-.461.168.538.665.933 1.257.933.591 0 1.09-.395 1.257-.933.554.113 1.008.286 1.496.46a7.302 7.302 0 0 0 1.78.431c.045.15.133.282.25.381l-2.12 5.655a.264.264 0 0 0-.017.093s-.003.593.331 1.188c.335.594 1.045 1.193 2.314 1.193 1.27 0 1.98-.599 2.314-1.193.335-.595.332-1.188.332-1.188a.264.264 0 0 0-.017-.093l-2.12-5.655a.794.794 0 0 0 .264-.425 3.968 3.968 0 0 0 1.226-.486c.226-.146.116-.496-.152-.487a.268.268 0 0 0-.141.046s-.397.261-.997.4a.797.797 0 0 0-.71-.443.797.797 0 0 0-.73.485c-.646-.07-1.14-.224-1.628-.4-.49-.175-.99-.368-1.617-.49a1.32 1.32 0 0 0-.522-.911v-1.067a.797.797 0 0 0-.793-.793zm0 .53c.15 0 .263.112.263.263v.821a1.316 1.316 0 0 0-.529 0v-.821c0-.151.115-.264.266-.264zm0 1.587c.441 0 .793.352.793.793a.788.788 0 0 1-.793.793.788.788 0 0 1-.793-.793c0-.441.351-.793.793-.793zm-5.291 1.586a.26.26 0 0 1 .264.266c0 .149-.115.263-.264.263a.261.261 0 0 1-.266-.263c0-.15.117-.266.266-.266zm10.582 0c.15 0 .265.116.265.266a.26.26 0 0 1-.265.263.259.259 0 0 1-.264-.263.26.26 0 0 1 .264-.266zm-5.825 1.055a.265.265 0 0 0-.259.27v8.2H5.82a.798.798 0 0 0-.792.795v.264a.8.8 0 0 0-.796.795v.527c0 .147.119.266.266.266h7.937c.147 0 .265-.12.264-.266v-.527a.798.798 0 0 0-.793-.795v-.264a.798.798 0 0 0-.792-.795H9.26v-8.2a.265.265 0 1 0-.53 0v8.2h-.529v-8.2a.265.265 0 0 0-.268-.27zm-4.772.003.015.002.013-.002 1.986 5.294h-4Zm10.583 0 .014.002.014-.002 1.986 5.294h-4zM1.09 291.18h4.172c-.029.17-.088.406-.233.663-.26.463-.74.923-1.853.923-1.112 0-1.592-.46-1.853-.923a2.021 2.021 0 0 1-.233-.663zm10.584 0h4.171c-.028.17-.088.406-.233.663-.26.463-.74.923-1.853.923-1.112 0-1.592-.46-1.853-.923a2.02 2.02 0 0 1-.232-.663zm-5.853 3.173c1.783.011 3.505 0 5.294 0 .15 0 .263.115.263.266v.263h-1.322c-.353 0-.353.53 0 .53h1.851c.151 0 .264.114.264.266v.263H4.76v-.263a.26.26 0 0 1 .267-.266h3.968c.353 0 .353-.53 0-.53h-3.44v-.263c0-.151.113-.266.264-.266z" font-family="sans-serif" font-weight="400" transform="translate(0 -280.067)" style="line-height:normal;font-variant-ligatures:normal;font-variant-position:normal;font-variant-caps:normal;font-variant-numeric:normal;font-variant-alternates:normal;font-feature-settings:normal;text-indent:0;text-align:start;text-decoration-line:none;text-decoration-style:solid;text-decoration-color:#000;text-transform:none;text-orientation:mixed;shape-padding:0;isolation:auto;mix-blend-mode:normal" fill="#fff" class="color000000 svgShape"></path></svg>