<svg xmlns="http://www.w3.org/2000/svg" fill-rule="evenodd" clip-rule="evenodd" viewBox="0 0 1.707 1.707"><path fill="#b89954" fill-rule="nonzero" d="M1.16014 0.80937c0.0118701,0.0505 0.0364606,0.0883858 0.0569016,0.119858 0.0202717,0.0312244 0.0369055,0.0568425 0.0369055,0.0853898 0,0.0315315 -0.00829134,0.0633858 -0.0294134,0.0862441 -0.0177953,0.0192598 -0.0439724,0.0317047 -0.0808425,0.0317047 -0.0368701,0 -0.0630472,-0.0124449 -0.0808425,-0.0317047 -0.021122,-0.0228583 -0.0294134,-0.0547126 -0.0294134,-0.0862441 0,-0.0285472 0.0166339,-0.0541654 0.0369055,-0.0853898 0.0205748,-0.0316811 0.0453583,-0.0698583 0.0571378,-0.120862l0.0162126 0.0037126 -0.0162402 -0.00375197c0.00207087,-0.0089685 0.0110236,-0.0145591 0.0199921,-0.0124882 0.00677953,0.00156693 0.0116299,0.00706693 0.0126969,0.0135315zm0.0290354 0.137961c-0.0149567,-0.0230354 -0.0319882,-0.0492677 -0.0454843,-0.0814567 -0.0134961,0.032189 -0.0305276,0.0584213 -0.0454843,0.0814567 -0.0172677,0.0265984 -0.0314331,0.0484134 -0.0314331,0.0672874 0,0.0240315 0.00579528,0.0477441 0.0205551,0.0637165 0.0117283,0.0126929 0.0298543,0.0208937 0.0563622,0.0208937 0.0265039,0 0.0446339,-0.00820079 0.0563622,-0.0208937 0.0147598,-0.0159724 0.0205551,-0.039685 0.0205551,-0.0637165 0,-0.018874 -0.0141654,-0.040689 -0.0314331,-0.0672874z" class="color250e1e svgShape"></path><path fill="#b89954" fill-rule="nonzero" d="M1.05011.997949c-.00920472 0-.0166693.00746457-.0166693.0166693 0 .00920472.00746457.0166693.0166693.0166693l.187165 0c.00920472 0 .0166693-.00746457.0166693-.0166693 0-.00920472-.00746457-.0166693-.0166693-.0166693l-.187165 0zM.727291.795409c-.00920472 0-.0166693.00746457-.0166693.0166693 0 .00920472.00746457.0166693.0166693.0166693l.515409 0c.00920472 0 .0166693-.00746457.0166693-.0166693 0-.00920472-.00746457-.0166693-.0166693-.0166693l-.515409 0z" class="color250e1e svgShape"></path><path fill="#b89954" fill-rule="nonzero" d="M0.99624 0.75511c0,-0.00920472 -0.00746457,-0.0166693 -0.0166693,-0.0166693 -0.00920472,0 -0.0166693,0.00746457 -0.0166693,0.0166693l0 0.45302c0,0.00920472 0.00746457,0.0166693 0.0166693,0.0166693 0.00920472,0 0.0166693,-0.00746457 0.0166693,-0.0166693l0 -0.45302z" class="color250e1e svgShape"></path><path fill="#b89954" fill-rule="nonzero" d="M.777472 1.19146l.406909 0c.0402323 0 .0722756.0316378.0722756.0722756l0 .0556102c0 .00920472-.00746457.0166693-.0166693.0166693l-.518122 0c-.00920472 0-.0166693-.00746457-.0166693-.0166693l0-.0556102c0-.039752.0325354-.0722756.0722756-.0722756zm.406909.0333386l-.406909 0c-.021437 0-.038937.0174882-.038937.038937l0 .0389409.484783 0 0-.0389409c0-.021252-.017622-.038937-.038937-.038937zM.82626.80937c.0118701.0505.0364606.0883858.0569016.119858.0202717.0312244.0369055.0568425.0369055.0853898 0 .0315315-.00829134.0633858-.0294134.0862441-.0177953.0192598-.0439724.0317047-.0808425.0317047-.0368701 0-.0630472-.0124449-.0808425-.0317047-.021122-.0228583-.0294134-.0547126-.0294134-.0862441 0-.0285472.0166339-.0541654.0369055-.0853898.0205748-.0316811.0453583-.0698583.0571378-.120862l.0162126.0037126-.0162402-.00375197c.00207087-.0089685.0110236-.0145591.0199921-.0124882.00677953.00156693.0116299.00706693.0126969.0135315zm.0290354.137961c-.0149567-.0230354-.0319882-.0492677-.0454843-.0814567-.0134961.032189-.0305276.0584213-.0454843.0814567-.0172677.0265984-.0314331.0484134-.0314331.0672874 0 .0240315.00579528.0477441.0205551.0637165.0117283.0126929.0298583.0208937.0563622.0208937.0265079 0 .0446378-.00820472.0563622-.0208937.0147598-.0159724.0205551-.039685.0205551-.0637165 0-.018874-.0141654-.040689-.0314331-.0672874z" class="color250e1e svgShape"></path><path fill="#b89954" fill-rule="nonzero" d="M0.716228 0.997949c-0.00920472,0 -0.0166693,0.00746457 -0.0166693,0.0166693 0,0.00920472 0.00746457,0.0166693 0.0166693,0.0166693l0.187165 0c0.00920472,0 0.0166693,-0.00746457 0.0166693,-0.0166693 0,-0.00920472 -0.00746457,-0.0166693 -0.0166693,-0.0166693l-0.187165 0z" class="color250e1e svgShape"></path><path fill="#b89954" fill-rule="nonzero" d="M1.5969 0.572138l-1.30989 0c-0.0185906,0 -0.033752,0.00733465 -0.0455354,0.0191181 -0.0146457,0.0146457 -0.0245472,0.0360787 -0.0297795,0.0593858l-0.177327 0.789362c-0.00069685,0.00311024 -0.0010315,0.00633858 -0.0010315,0.00963386 0,0.0136142 0.00656299,0.0264016 0.0168228,0.0367244 0.0110472,0.0111181 0.0261496,0.0193346 0.0421811,0.0229291 0.00558268,0.00125591 0.0114134,0.00192126 0.0173425,0.00192126l1.30418 0c0.043937,0 0.0665669,-0.0408307 0.075315,-0.0785669l0.183039 -0.789362c0.000751969,-0.00324409 0.00111024,-0.00653937 0.00111024,-0.00983465 0,-0.0134291 -0.00648819,-0.0260669 -0.016626,-0.0362913 -0.0109488,-0.0110512 -0.0259134,-0.019252 -0.0418031,-0.022937 -0.00585827,-0.00135827 -0.0119173,-0.00208268 -0.0179961,-0.00208268zm-1.30989 -0.0333386l1.30989 0c0.00842913,0 0.0169882,0.00104331 0.0254213,0.00299606 0.0219213,0.00508268 0.0426614,0.0164961 0.0579449,0.0319213 0.0160984,0.0162402 0.0263976,0.0369528 0.0263976,0.0597323 0,0.0055748 -0.000653543,0.0113425 -0.00202362,0.0172598l-0.183039 0.789362c-0.0117795,0.0508386 -0.0480512,0.10448 -0.10774,0.10448l-1.30418 0c-0.00811024,0 -0.0163976,-0.000984252 -0.0246339,-0.00283465 -0.0221102,-0.00496063 -0.0430315,-0.0163898 -0.0584567,-0.0319134 -0.0162165,-0.0163189 -0.0265945,-0.0371929 -0.0265945,-0.0601654 0,-0.00540157 0.000629921,-0.0110591 0.00194488,-0.0169252l0.177327 -0.789362c0.00654331,-0.0291457 0.0193543,-0.056378 0.0386378,-0.0756614 0.017811,-0.017811 0.0407992,-0.0288898 0.0691024,-0.0288898z" class="color250e1e svgShape"></path><path fill="#b89954" fill-rule="nonzero" d="M1.4887 0.555469c0,0.00920472 0.00746457,0.0166693 0.0166693,0.0166693 0.00920472,0 0.0166693,-0.00746457 0.0166693,-0.0166693 0,-0.0246811 0.00115354,-0.0435591 0.00206299,-0.0585118 0.00172441,-0.028315 0.00272835,-0.0447953 -0.00606693,-0.0578268 -0.0128228,-0.0190157 -0.035937,-0.0190118 -0.0911929,-0.0190118l-0.00155906 0 -0.661307 0c-0.0264961,-0.0336142 -0.0481142,-0.0649094 -0.0674449,-0.0928898 -0.0718898,-0.104067 -0.113642,-0.164512 -0.272264,-0.164512l-0.331772 0c-0.0142598,0 -0.022122,-0.000165354 -0.0288543,-0.00030315 -0.0294055,-0.000606299 -0.0437087,-0.000897638 -0.0542953,0.0105079 -0.00990945,0.0106732 -0.00944882,0.0242165 -0.00854724,0.0505512 0.000307087,0.0089685 0.000681102,0.0199449 0.000681102,0.036l0 1.17689c0,0.00920472 0.00746457,0.0166693 0.0166693,0.0166693 0.00920472,0 0.0166693,-0.00746457 0.0166693,-0.0166693l0 -1.17689c0,-0.0132244 -0.000448819,-0.0263071 -0.000814961,-0.0370394 -0.000590551,-0.0173189 -0.000893701,-0.0262283 -0.000311024,-0.0268583 0.000507874,-0.000547244 0.00993307,-0.000354331 0.0292953,4.33071e-005 0.00970866,0.00019685 0.0211535,0.000437008 0.0295079,0.000437008l0.331772 0c0.14126,0 0.179343,0.0551299 0.244917,0.150055 0.0203583,0.0294724 0.043248,0.0626063 0.0728307,0.0996929 0.0029685,0.00460236 0.00814173,0.00765354 0.0140236,0.00765354l0.669244 0 0.00155906 0c0.0427913,0 0.0606929,0 0.0635866,0.00429528 0.00250787,0.00371654 0.00175591,0.0160551 0.000468504,0.037252 -0.000968504,0.0159252 -0.00219685,0.0360276 -0.00219685,0.0604646z" class="color250e1e svgShape"></path></svg>