<svg xmlns="http://www.w3.org/2000/svg" viewBox="0 0 100 100"><path fill="#b89954" d="M78 5H22c-5.5 0-10 4.5-10 10v6c0 1.1.9 2 2 2h14v54H14c-1.1 0-2 .9-2 2v6c0 5.5 4.5 10 10 10h56c5.5 0 10-4.5 10-10V15c0-5.5-4.5-10-10-10zM16 19v-4c0-3.3 2.7-6 6-6s6 2.7 6 6v4H16zm0 66v-4h12v4c0 3.3-2.7 6-6 6s-6-2.7-6-6zm68 0c0 3.3-2.7 6-6 6H30c1.3-1.7 2-3.7 2-6V15c0-2.3-.8-4.3-2-6h48c3.3 0 6 2.7 6 6v70z" class="color000000 svgShape"></path><path fill="#b89954" d="M71.8 28.1c-.3-.7-1-1.1-1.8-1.1H60v-4c0-1.1-.9-2-2-2s-2 .9-2 2v4H46c-.8 0-1.5.4-1.8 1.1l-4 8c-.1.3-.2.6-.2.9 0 3.3 2.7 6 6 6s6-2.7 6-6c0-.3-.1-.6-.2-.9L49.2 31H56v14h-3c-1.1 0-2 .9-2 2v8h-4c-1.1 0-2 .9-2 2s.9 2 2 2h22c1.1 0 2-.9 2-2s-.9-2-2-2h-4v-8c0-1.1-.9-2-2-2h-3V31h6.8l-2.6 5.1c-.1.3-.2.6-.2.9 0 3.3 2.7 6 6 6s6-2.7 6-6c0-.3-.1-.6-.2-.9l-4-8zM46 39c-1 0-1.8-.7-2-1.6l2-3.9 2 3.9c-.2.9-1 1.6-2 1.6zm15 16h-6v-6h6v6zm9-16c-1 0-1.8-.7-2-1.6l2-3.9 2 3.9c-.2.9-1 1.6-2 1.6zm4 26H42c-1.1 0-2 .9-2 2s.9 2 2 2h32c1.1 0 2-.9 2-2s-.9-2-2-2zm0 10H42c-1.1 0-2 .9-2 2s.9 2 2 2h32c1.1 0 2-.9 2-2s-.9-2-2-2z" class="color000000 svgShape"></path></svg>