<svg xmlns="http://www.w3.org/2000/svg" viewBox="0 0 64 64"><path fill="#b89954" d="M56.8681641,52.3650551h-2.624939l-0.7764282-2.8046875  c-0.0501709-0.3063965-0.223938-0.565918-0.4619141-0.7469482V28.4469662  c0.2379761-0.1810303,0.4117432-0.4405518,0.4619141-0.7469482l0.7765503-2.8056641h3.5564575  c0.605957,0,1.1088867-0.4482422,1.1889648-1.0292969l0.9848633-4.2216797L60,19.4158382  c0-0.4624634-0.274231-0.8534546-0.6627808-1.0510864l0.0060425-0.0114136  C59.0922852,18.2205257,34.2231445,5.0554867,32.5693359,4.146307c-0.3525391-0.1923828-0.7763672-0.1962891-1.1376953-0.0029297  L4.65625,18.3533382l0.0061646,0.0116577C4.2741089,18.5627499,4,18.953558,4,19.4158382l1.0112305,4.4492188  c0.0800781,0.5810547,0.5830078,1.0292969,1.1889648,1.0292969h3.5564575l0.7765503,2.8056641  c0.0501709,0.3063965,0.223938,0.565918,0.4619141,0.7469482v20.3664532  c-0.2379761,0.1810303-0.4117432,0.4405518-0.4619141,0.7469482l-0.7764282,2.8046875h-2.624939  c-0.4741211,0-0.9047852,0.2792969-1.1225586,0.7734375L4,58.6306801v0.1767578  c0,0.6572266,0.5385742,1.1923828,1.2001953,1.1923828h53.5996094C59.4614258,59.9998207,60,59.4646645,60,58.8074379v-0.1767578  l-2.034668-5.5546875C57.7729492,52.644352,57.3422852,52.3650551,56.8681641,52.3650551z M12.9951172,28.7000179h2.75v19.8603497  h-2.75V28.7000179z M18.2075195,49.5603676c-0.0502319-0.3065186-0.2241211-0.5661011-0.4624023-0.7471924V28.4472103  c0.2382813-0.1810913,0.4121704-0.4406738,0.4624023-0.7471924l0.7765503-2.8056641h2.5255127l0.7765503,2.8056641  c0.0502319,0.3065186,0.2241211,0.5661011,0.4624023,0.7471924v20.3659649  c-0.2382813,0.1810913-0.4121704,0.4406738-0.4624023,0.7471924l-0.7764282,2.8046875h-2.5257568L18.2075195,49.5603676z   M24.7485352,28.7000179h2.75v19.8603497h-2.75V28.7000179z M28.1621094,26.7000179h-4.0776367l-0.4995117-1.8056641h5.0766602  L28.1621094,26.7000179z M24.0844727,50.5603676h4.0776367l0.4995117,1.8046875h-5.0766602L24.0844727,50.5603676z   M29.9604492,49.5603676c-0.0501709-0.3063965-0.223938-0.565918-0.4619141-0.7469482V28.4469662  c0.2379761-0.1810303,0.4117432-0.4405518,0.4619141-0.7469482l0.7765503-2.8056641h2.526001l0.7765503,2.8056641  c0.0501709,0.3063965,0.223938,0.565918,0.4619141,0.7469482v20.3664532  c-0.2379761,0.1810303-0.4117432,0.4405518-0.4619141,0.7469482l-0.7764282,2.8046875h-2.5262451L29.9604492,49.5603676z   M36.5014648,28.7000179h2.75v19.8603497h-2.75V28.7000179z M39.9155273,26.7000179h-4.0776367l-0.4995117-1.8056641h5.0766602  L39.9155273,26.7000179z M35.8378906,50.5603676h4.0776367l0.4995117,1.8046875h-5.0766602L35.8378906,50.5603676z   M41.7138672,49.5603676c-0.0502319-0.3065186-0.2241211-0.5661011-0.4624023-0.7471924V28.4472103  c0.2382813-0.1810913,0.4121704-0.4406738,0.4624023-0.7471924l0.7765503-2.8056641h2.5255127l0.7765503,2.8056641  c0.0502319,0.3065186,0.2241211,0.5661011,0.4624023,0.7471924v20.3659649  c-0.2382813,0.1810913-0.4121704,0.4406738-0.4624023,0.7471924l-0.7764282,2.8046875h-2.5257568L41.7138672,49.5603676z   M51.0048828,48.5603676h-2.75V28.7000179h2.75V48.5603676z M47.5908203,50.5603676h4.0776367l0.4995117,1.8046875h-5.0766602  L47.5908203,50.5603676z M51.668457,26.7000179h-4.0776367l-0.4995117-1.8056641h5.0766602L51.668457,26.7000179z   M31.9936523,6.1091976c2.7073975,1.4552612,16.243103,8.6260376,22.8302002,12.1142578h-4.5152588  c-1.992981-1.0413208-17.0790405-8.925415-17.8022461-9.3232422L31.953125,8.6560726l-18.1115723,9.5673828H9.1672363  L31.9936523,6.1091976z M45.9902954,18.2234554H18.1219482l13.8751221-7.328125  C33.9301758,11.91712,41.4191895,15.833807,45.9902954,18.2234554z M6.8383789,22.8943539L6.215332,20.2234554H57.784668  l-0.6230469,2.6708984H54.796875H44.4624023h-1.418457H32.7094727h-1.4189453H20.9560547h-1.418457H9.203125H6.8383789z   M16.9086914,24.8943539l-0.4995117,1.8056641H12.331543l-0.4995117-1.8056641H16.9086914z M12.331543,50.5603676h4.0776367  l0.4995117,1.8046875h-5.0766602L12.331543,50.5603676z M6.3598633,57.9998207l1.328125-3.6347656H9.203125h10.3344727h1.418457  h10.3344727h1.4189453h10.3344727h1.418457H54.796875h1.5131836l1.3295898,3.6347656H6.3598633z" class="color57585b svgShape"></path></svg>