<svg xmlns="http://www.w3.org/2000/svg" data-name="Layer 1" viewBox="0 0 128 128"><path fill="#b89954" d="M100.49963 111.81219v14.02362a2 2 0 0 0 3.99994 0V111.81219a2 2 0 0 0-3.99994 0zM27.50037 125.83582V111.81219a2 2 0 0 0-3.99994 0v14.02362a2 2 0 0 0 3.99994 0zM89.99976 103.86456H75.99988a1.9988 1.9988 0 0 0-2 1.99738v5.99219a7.0036 7.0036 0 0 0 6.99994 6.99084h4a7.00355 7.00355 0 0 0 6.99988-6.99084v-5.99219A1.99875 1.99875 0 0 0 89.99976 103.86456zm-2 7.98956a3.00134 3.00134 0 0 1-2.99994 2.99609h-4a3.00134 3.00134 0 0 1-2.99994-2.99609v-3.99475h9.99988zM89.99976 97.87244H75.99988a1.99738 1.99738 0 1 0 0 3.99475H89.99976a1.99738 1.99738 0 1 0 0-3.99475zM43.00018 118.845h4a7.0036 7.0036 0 0 0 6.99994-6.99084v-5.99219a1.9988 1.9988 0 0 0-2-1.99738H38.00024a1.99875 1.99875 0 0 0-1.99994 1.99738v5.99219A7.00355 7.00355 0 0 0 43.00018 118.845zm-2.99994-10.9856h9.99988v3.99475a3.00134 3.00134 0 0 1-2.99994 2.99609h-4a3.00134 3.00134 0 0 1-2.99994-2.99609zM52.00012 97.87244H38.00024a1.99738 1.99738 0 1 0 0 3.99475H52.00012a1.99738 1.99738 0 1 0 0-3.99475z" class="color000000 svgShape"></path><polygon fill="#b89954" points="102.444 88.59 102.694 85.238 100.518 87.803 97.403 86.529 99.174 89.388 96.998 91.954 100.268 91.155 102.039 94.015 102.289 90.662 105.559 89.864 102.444 88.59" class="color000000 svgShape"></polygon><polygon fill="#b89954" points="92.979 86.499 96.248 85.7 93.133 84.427 93.383 81.074 91.208 83.639 88.093 82.366 89.863 85.225 87.688 87.79 90.958 86.992 92.728 89.851 92.979 86.499" class="color000000 svgShape"></polygon><polygon fill="#b89954" points="28.073 89.388 29.844 86.529 26.729 87.803 24.553 85.238 24.804 88.59 21.688 89.864 24.958 90.662 25.209 94.015 26.979 91.155 30.249 91.954 28.073 89.388" class="color000000 svgShape"></polygon><polygon fill="#b89954" points="34.269 86.499 34.519 89.851 36.289 86.992 39.559 87.79 37.384 85.225 39.154 82.366 36.039 83.639 33.864 81.074 34.114 84.427 30.999 85.7 34.269 86.499" class="color000000 svgShape"></polygon><path fill="#b89954" d="M109.168,88.32922l11.92224,38.10248a2,2,0,0,0,3.8183-1.19177L112.98584,87.13745A17.06456,17.06456,0,0,0,102.39807,76.185a1.95147,1.95147,0,0,0-.28857-.07806L93.52118,74.472,80.81085,70.02118a1.99267,1.99267,0,0,0-1.38928.04523,10.62437,10.62437,0,0,1-2.51489-7.12646c7.25677-5.89642,12.09308-16.05328,12.09308-24.98914V32.8844c.53149-.5199,1.04688-1.06061,1.5332-1.64062l.00073-.0011a1.9943,1.9943,0,0,0,.21222-.31183c.02325-.04163.03931-.08527.05927-.128a1.95631,1.95631,0,0,0,.0885-.21112c.01837-.055.03009-.11066.04346-.16663.01093-.04553.02747-.0885.03528-.13519L92.8963,18.76117l4.73083-6.6145A1.997,1.997,0,0,0,96.5412,9.06281L64.5415.07458a2.00223,2.00223,0,0,0-1.083,0L31.4588,9.06281a1.997,1.997,0,0,0-1.08594,3.08386l4.73083,6.6145,1.92389,11.52875c.00781.04669.02435.08966.03528.13519.01337.056.02509.11163.04346.16663a1.95631,1.95631,0,0,0,.0885.21112c.02.04272.036.08636.05927.128a1.9943,1.9943,0,0,0,.21222.31183l.00073.0011c.48633.58,1.00171,1.12073,1.5332,1.64063v5.06641c0,9.26453,5.19958,19.83972,12.90454,25.6203a10.37073,10.37073,0,0,1-2.78833,6.81262,1.98967,1.98967,0,0,0-1.92731-.36255L34.47882,74.472,25.8905,76.10693a1.95146,1.95146,0,0,0-.28857.07806A17.0664,17.0664,0,0,0,15.01367,87.13745L3.09143,125.23993a1.99777,1.99777,0,0,0,1.3125,2.50256,1.99839,1.99839,0,0,0,2.5058-1.31079L18.83148,88.32922a13.053,13.053,0,0,1,7.96088-8.327l8.11719-1.545,9.57892,2.729L42.7287,83.50061a1.99649,1.99649,0,0,0,.30127,2.7337l16.60925,14.02557A6.78693,6.78693,0,0,0,62,101.53827v24.46436a2,2,0,0,0,4,0V101.53833a6.78946,6.78946,0,0,0,2.36029-1.27747L84.97,86.23431a1.99649,1.99649,0,0,0,.30127-2.7337l-1.75977-2.31439,9.57892-2.729,8.11719,1.545A13.05108,13.05108,0,0,1,109.168,88.32922ZM38.02924,15.97955l-2.7467-3.84064L64,4.07227l28.71747,8.06665-2.7467,3.84064H70.99994V12.98346a1.9988,1.9988,0,0,0-2-1.99738H59.00006a1.9988,1.9988,0,0,0-2,1.99738v2.99609ZM67,14.9809v2.996a3,3,0,0,1-6,0v-2.996ZM39.36108,19.97437H57.29492a6.99842,6.99842,0,0,0,13.41016,0H88.63892l-1.3335,7.9895H40.69458ZM83.84961,31.95868c-3.96539,2.70874-9.25824,3.99475-16.26715,3.99475H60.41754c-7.00891,0-12.30176-1.286-16.26715-3.99475ZM43.00018,37.95081v-1.969c4.467,2.68433,10.1582,3.96637,17.41736,3.96637h7.16492c7.25916,0,12.95038-1.282,17.41736-3.96637v1.969c0,11.68884-9.69037,25.96606-20.99982,25.96606S43.00018,49.63965,43.00018,37.95081Zm33.46765,34.8349-11.731,11.85693a1.01064,1.01064,0,0,1-1.47363,0l-11.291-11.41211a13.90784,13.90784,0,0,0,3.69818-7.337A18.79573,18.79573,0,0,0,64,67.91162a19.03826,19.03826,0,0,0,9.1109-2.42444A14.02068,14.02068,0,0,0,76.46783,72.78571Zm3.13257,5.36151a1.9961,1.9961,0,0,0-1.04388,3.12872l2.38129,3.13165L65.77686,97.21118a2.78718,2.78718,0,0,1-3.5542-.001L47.06219,84.40759l2.38129-3.13165a1.9961,1.9961,0,0,0-1.04388-3.12872l-6.79584-1.93689L47.31805,74.21l13.1,13.24048a5.01313,5.01313,0,0,0,7.16394,0l.00049-.001L80.68195,74.21l5.71429,2.00031Z" class="color000000 svgShape"></path></svg>