<svg xmlns="http://www.w3.org/2000/svg" fill-rule="evenodd" clip-rule="evenodd" viewBox="0 0 512 512" id="Family"><defs><linearGradient id="a" x1="220.282" x2="291.715" y1="26.466" y2="485.534" gradientUnits="userSpaceOnUse"><stop offset="0" stop-color="#c6921e" class="stopColor1e8ac6 svgShape"></stop><stop offset=".302" stop-color="#b89954" class="stopColor834fbc svgShape"></stop><stop offset="1" stop-color="#e8a613" class="stopColore813b1 svgShape"></stop></linearGradient></defs><path fill="url(#a)" d="M136 460c-1,-3 -2,-7 -3,-10l-4 -72 -21 0 -5 72c0,3 -1,7 -2,10l35 0zm-75 0c-1,-3 -2,-7 -3,-10l-4 -72 -12 0c0,0 0,0 -1,0 -1,0 -6,-1 -10,-7 -6,-7 -8,-19 -5,-35 6,-48 19,-63 29,-75 7,-9 13,-16 14,-38l-24 42c-7,11 -21,15 -33,9 -6,-3 -9,-9 -11,-15 -2,-6 -1,-13 2,-18 2,-4 6,-11 10,-20 34,-66 55,-101 73,-97 0,0 0,0 0,0 5,1 8,4 12,7 6,5 12,10 23,10 10,0 17,-5 22,-10 5,-3 8,-6 13,-7 11,-2 27,14 76,105 3,5 5,10 7,12 3,5 4,12 2,18 -2,6 -6,12 -11,15 -6,3 -12,4 -19,2 -6,-1 -11,-5 -14,-11l-25 -42c2,22 8,29 15,38 10,12 22,27 29,75 3,16 1,28 -5,35 -4,6 -10,7 -11,7 0,0 0,0 -1,0l-16 0 -5 72c0,3 -1,7 -2,10l73 0c0,-2 0,-3 0,-5l0 -73 -16 0c-3,0 -6,-3 -6,-6l0 -61c0,-20 16,-37 37,-37l31 0c20,0 37,17 37,37l0 61c0,3 -3,6 -6,6l-16 0 0 73c0,2 0,3 -1,5l68 0c-3,-4 -4,-8 -4,-13l0 -136 -7 0 -26 0c-1,0 -3,-1 -4,-2 -1,-1 -2,-3 -2,-4l0 -108c0,-33 27,-60 60,-61 2,0 3,1 4,2 7,7 16,10 25,10 9,0 18,-3 25,-10 1,-1 3,-2 4,-2 33,1 60,28 60,61l0 108c0,3 -3,6 -6,6l-26 0 -7 0 0 136c0,5 -1,9 -3,13l36 0c3,0 6,2 6,6 0,3 -3,6 -6,6l-57 0 -26 0 -25 0 -104 0 -29 0 -109 0 -75 0 -75 0c-3,0 -6,-3 -6,-6 0,-4 3,-6 6,-6l55 0zm74 -94l0 0 42 0 0 0 22 0c1,-1 8,-5 5,-28 -6,-44 -17,-58 -26,-69 -11,-13 -20,-24 -18,-68l0 -12c0,-3 3,-6 6,-6 4,0 6,3 6,6l0 10 35 60c2,3 4,5 7,6 3,0 7,0 10,-2 2,-1 4,-4 5,-7 1,-3 1,-6 -1,-9 -1,-3 -4,-7 -7,-13 -8,-14 -21,-39 -34,-60 -20,-33 -28,-38 -29,-38 -2,0 -5,2 -7,4 -7,6 -15,13 -30,13 -15,0 -24,-7 -30,-13 -3,-2 -6,-4 -8,-4 0,0 -7,-1 -26,29 -12,20 -24,44 -33,61 -4,9 -8,17 -10,21 -2,2 -2,6 -2,9 1,3 3,6 6,7 3,2 6,2 9,1 3,0 6,-2 8,-5l34 -60 0 -10c0,-3 3,-6 6,-6 3,0 6,3 6,6l0 12c0,0 0,0 0,1 2,43 -7,54 -17,67 -10,11 -20,24 -27,69 -3,23 4,27 6,28l17 0 0 0 42 0 0 0 33 0zm22 -230l0 0 0 0zm-36 -9c-24,0 -44,-19 -44,-43 0,-24 20,-44 44,-44 24,0 43,20 43,44 0,24 -19,43 -43,43zm0 -75c-18,0 -32,14 -32,32 0,17 14,31 32,31 17,0 31,-14 31,-31 0,-18 -14,-32 -31,-32zm264 259l0 136c0,7 6,13 13,13l19 0 0 -106c0,-3 3,-6 6,-6 4,0 6,3 6,6l0 106 20 0c7,0 12,-6 12,-13l0 -136 -76 0zm-39 -12l14 0 0 -71c0,-3 3,-6 6,-6 3,0 6,3 6,6l0 71 7 0 88 0 7 0 0 -71c0,-3 3,-6 6,-6 4,0 6,3 6,6l0 71 14 0 0 -102c0,-25 -20,-47 -46,-49 -8,8 -19,12 -31,12 -11,0 -22,-4 -31,-12 -25,2 -46,23 -46,49l0 102 0 0zm77 -164c-26,0 -47,-22 -47,-48 0,-26 21,-47 47,-47 26,0 47,22 47,47 0,26 -21,48 -47,48zm0 -83c-19,0 -35,16 -35,35 0,20 16,35 35,35 20,0 35,-15 35,-35 0,-19 -15,-35 -35,-35zm-162 330l0 73c0,3 1,5 4,5l29 0c2,0 4,-2 4,-5l0 -73 -37 0zm-22 -12l80 0 0 -55c0,-13 -11,-25 -24,-25l-31 1c-14,0 -25,11 -25,24l0 55zm40 -99c-16,0 -29,-13 -29,-29 0,-16 13,-29 29,-29 16,0 29,13 29,29 0,16 -13,29 -29,29zm0 -46c-9,0 -17,8 -17,17 0,10 8,17 17,17 10,0 17,-7 17,-17 0,-9 -7,-17 -17,-17zm-213 153l4 71c1,6 5,11 11,11 5,0 10,-5 10,-11l5 -71 -30 0zm75 0l4 71c1,6 5,11 11,11 5,0 10,-5 10,-11l5 -71 -30 0z"></path></svg>