<svg xmlns="http://www.w3.org/2000/svg" viewBox="0 0 64 64" id="Law"><path fill="#b89954" d="M33.16 61.69H5.37a1.5 1.5 0 0 1-1.5-1.5V54a1.5 1.5 0 0 1 1.5-1.5H22a1.5 1.5 0 0 1 0 3H6.87v3.23h24.79v-3.27h-2.14a1.5 1.5 0 0 1 0-3h3.64a1.5 1.5 0 0 1 1.5 1.5v6.23a1.5 1.5 0 0 1-1.5 1.5Z" class="color222222 svgShape"></path><path fill="#b89954" d="M29.52 55.46A1.5 1.5 0 0 1 28 54v-4.77H10.51V54a1.5 1.5 0 0 1-3 0v-6.27A1.5 1.5 0 0 1 9 46.23h20.52a1.5 1.5 0 0 1 1.5 1.5V54a1.5 1.5 0 0 1-1.5 1.46zm-6.74-18.31a1.5 1.5 0 0 1-1.06-2.56l16.21-16.22a1.5 1.5 0 1 1 2.13 2.12L23.84 36.71a1.53 1.53 0 0 1-1.06.44zm-10.3-10.3a1.45 1.45 0 0 1-1.06-.44 1.49 1.49 0 0 1 0-2.12L27.64 8.07a1.5 1.5 0 1 1 2.12 2.12L13.54 26.41a1.47 1.47 0 0 1-1.06.44z" class="color222222 svgShape"></path><path fill="#b89954" d="M40.2 22.13a1.45 1.45 0 0 1-1.06-.44l-1.21-1.2a1.5 1.5 0 0 1 2.13-2.12l.14.14 2-2L31.62 5.93l-2 2 6.1 6.1a1.51 1.51 0 0 1 0 2.12 1.49 1.49 0 0 1-2.12 0L26.44 9a1.49 1.49 0 0 1 0-2.12l4.11-4.12a1.56 1.56 0 0 1 2.13 0l12.7 12.7a1.52 1.52 0 0 1 .44 1.06 1.5 1.5 0 0 1-.44 1.06l-4.12 4.12a1.48 1.48 0 0 1-1.06.43zM19.86 42.47A1.49 1.49 0 0 1 18.8 42L6.1 29.33a1.49 1.49 0 0 1 0-2.12l4.12-4.12a1.49 1.49 0 0 1 2.12 0l1.2 1.2a1.5 1.5 0 1 1-2.12 2.12l-.14-.14-2 2 10.58 10.58 2-2-5.39-5.38a1.51 1.51 0 0 1 0-2.12 1.49 1.49 0 0 1 2.12 0L25 35.79a1.5 1.5 0 0 1 0 2.12L20.92 42a1.51 1.51 0 0 1-1.06.47zM55.9 56.69a4.2 4.2 0 0 1-3-1.24l-25-24.92a1.47 1.47 0 0 1-.45-1.06 1.5 1.5 0 0 1 .44-1.06l3.87-3.86a1.49 1.49 0 0 1 2.12 0l25 24.91a4.24 4.24 0 0 1 0 6 4.2 4.2 0 0 1-2.98 1.23zM31.08 29.47 55 53.33a1.27 1.27 0 0 0 1.74 0 1.24 1.24 0 0 0 .36-.87 1.23 1.23 0 0 0-.36-.87l-24-23.86z" class="color222222 svgShape"></path></svg>