<svg xmlns="http://www.w3.org/2000/svg" viewBox="0 0 64 64" id="Prisoner"><rect width="2" height="62" x="1" y="1" fill="#b89954" class="color000000 svgShape"></rect><rect width="2" height="62" x="5" y="1" fill="#b89954" class="color000000 svgShape"></rect><path d="M46,60h4v3h2V50a10.077,10.077,0,0,0-6-9.219V1H44V63h2Zm4-10H46V48h3.731A8.064,8.064,0,0,1,50,50Zm-4,2h4v2H46Zm0,6V56h4v2Zm2.922-12H46V43.027A8.056,8.056,0,0,1,48.922,46Z" fill="#b89954" class="color000000 svgShape"></path><rect width="2" height="62" x="57" y="1" fill="#b89954" class="color000000 svgShape"></rect><rect width="2" height="62" x="61" y="1" fill="#b89954" class="color000000 svgShape"></rect><path d="M24 60H40v3h2V1H40V8.032A4.979 4.979 0 0036 6H29a9.981 9.981 0 00-5 1.347V1H22V63h2zM40 42H35.31a6.03 6.03 0 002.224-2.684L40 40.373zM24 52H40v2H24zm0-2V48H40v2zm0-4V44H40v2zm8-5a3.991 3.991 0 01-3.779-2.747 9.932 9.932 0 007.558 0A3.991 3.991 0 0132 41zm-3.31 1H24V40.373l2.466-1.057A6.03 6.03 0 0028.69 42zM24 58V56H40v2zM40 38.2l-2.017-.864c.006-.111.017-.221.017-.334v-.019a10.088 10.088 0 002-2.007zM29 8h7a3 3 0 013 3 1 1 0 001 1v6.586l-2.293-2.293A.983.983 0 0036.929 16a1 1 0 00-.729.4A9.045 9.045 0 0129 20H24V9.765A7.976 7.976 0 0129 8zM24 22h5a11.059 11.059 0 008.064-3.521L40 21.414V29a8 8 0 01-16 0zm2 14.981V37c0 .113.011.223.017.334L24 38.2V34.974A10.088 10.088 0 0026 36.981zM14 60h4v3h2V1H18V40.781A10.077 10.077 0 0012 50V63h2zm0-2V56h4v2zm.269-10H18v2H14A8.064 8.064 0 0114.269 48zM18 52v2H14V52zm0-8.973V46H15.078A8.056 8.056 0 0118 43.027z" fill="#b89954" class="color000000 svgShape"></path></svg>