<svg xmlns="http://www.w3.org/2000/svg" viewBox="0 0 48 48"><title>13-law</title><g id="_13-law" data-name="13-law"><path d="M14,32a7.008,7.008,0,0,1-7-7V19a7,7,0,0,1,14,0v6A7.008,7.008,0,0,1,14,32Zm0-18a5.006,5.006,0,0,0-5,5v6a5,5,0,0,0,10,0V19A5.006,5.006,0,0,0,14,14Z"></path><path d="M20,22c-4.8,0-7.3-.848-8.6-1.773A4.106,4.106,0,0,1,8,22l-.007-2A1.884,1.884,0,0,0,10,18a1,1,0,0,1,2,0h0c.018,0,.708,2,8,2Z"></path><path d="M21,26H20V21h1a1,1,0,0,1,1,1v3A1,1,0,0,1,21,26Z"></path><path d="M8,26H7a1,1,0,0,1-1-1V22a1,1,0,0,1,1-1H8Z"></path><path d="M14,35a3,3,0,0,1-3-3V31h2v1a1,1,0,0,0,2,0V31h2v1A3,3,0,0,1,14,35Z"></path><path d="M27,48H1a1,1,0,0,1-1-1V41a9.01,9.01,0,0,1,9-9v2a7.008,7.008,0,0,0-7,7v5H26V41a7.008,7.008,0,0,0-7-7V32a9.01,9.01,0,0,1,9,9v6A1,1,0,0,1,27,48Z"></path><path d="M14,44a1,1,0,0,1-.707-.293l-9-9,1.414-1.414L14,41.586l8.293-8.293,1.414,1.414-9,9A1,1,0,0,1,14,44Z"></path><rect x="13" y="43" width="2" height="4"></rect><rect x="5" y="43" width="2" height="4"></rect><rect x="21" y="43" width="2" height="4"></rect><path d="M41,26a7.008,7.008,0,0,1-7-7,1,1,0,0,1,1-1H47a1,1,0,0,1,1,1A7.008,7.008,0,0,1,41,26Zm-4.9-6a5,5,0,0,0,9.8,0Z"></path><path d="M46.143,19.515,41,10.944l-5.143,8.571-1.714-1.03,6-10a1.039,1.039,0,0,1,1.714,0l6,10Z"></path><rect x="19" y="8" width="22" height="2"></rect><path d="M30,6a3,3,0,1,1,3-3A3,3,0,0,1,30,6Zm0-4a1,1,0,1,0,1,1A1,1,0,0,0,30,2Z"></path><rect x="29" y="5" width="2" height="24"></rect><path d="M38,34H27V32H37V31a1,1,0,0,0-1-1H24a1,1,0,0,0-1,1H21a3,3,0,0,1,3-3H36a3,3,0,0,1,3,3v2A1,1,0,0,1,38,34Z"></path></g></svg>