<svg xmlns="http://www.w3.org/2000/svg" id="_01-law" data-name="01-law" viewBox="0 0 48 48"><title>01-law</title><path d="M40,40a8,8,0,1,1,8-8A8.009,8.009,0,0,1,40,40Zm0-14a6,6,0,1,0,6,6A6.006,6.006,0,0,0,40,26Z"></path><path d="M44,48a1,1,0,0,1-.707-.293L40,44.414l-3.293,3.293A1,1,0,0,1,35,47V38h2v6.586l2.293-2.293a1,1,0,0,1,1.414,0L43,44.586V38h2v9a1,1,0,0,1-1,1Z"></path><path d="M34,48H7a3,3,0,0,1-3-3V9a1,1,0,0,1,.293-.707l8-8A1,1,0,0,1,13,0H41a3,3,0,0,1,3,3V22H42V3a1,1,0,0,0-1-1H13.414L6,9.414V45a1,1,0,0,0,1,1H34Z"></path><path d="M11,10H5V8h6a1,1,0,0,0,1-1V1h2V7A3,3,0,0,1,11,10Z"></path><rect x="17" y="13" width="22" height="2"></rect><rect x="9" y="18" width="30" height="2"></rect><rect x="9" y="23" width="24" height="2"></rect><rect x="9" y="28" width="21" height="2"></rect><rect x="9" y="33" width="21" height="2"></rect><rect x="9" y="38" width="23" height="2"></rect><path d="M40,9H38V7a1,1,0,0,0-1-1H35V4h2a3,3,0,0,1,3,3Z"></path><rect x="31" y="4" width="2" height="2"></rect></svg>