<svg xmlns="http://www.w3.org/2000/svg" viewBox="0 0 48 48"><title>08-law</title><g id="_08-law" data-name="08-law"><path d="M27.013,44.307a3.008,3.008,0,0,1-2.135-.883L14.884,33.43a3.019,3.019,0,0,1,0-4.269,3.093,3.093,0,0,1,4.27,0l9.993,9.994a3.018,3.018,0,0,1-2.134,5.152Zm-9.994-14.03a1.019,1.019,0,0,0-.721,1.739l9.994,9.994a1.019,1.019,0,1,0,1.441-1.441L17.74,30.575A1.016,1.016,0,0,0,17.019,30.277Z"></path><path d="M41.29,30.032a3,3,0,0,1-2.135-.885l-9.994-9.993a3.02,3.02,0,0,1,0-4.27,3.092,3.092,0,0,1,4.27,0l9.993,9.994a3.02,3.02,0,0,1-2.134,5.154ZM31.3,16a1.01,1.01,0,0,0-.719.3,1.021,1.021,0,0,0,0,1.442l9.994,9.993a1.042,1.042,0,0,0,1.44,0,1.02,1.02,0,0,0,0-1.441L32.016,16.3A1.013,1.013,0,0,0,31.3,16Z"></path><path d="M27.727,40.148a1,1,0,0,1-.707-.293l-8.566-8.566a1,1,0,0,1,0-1.414L29.875,18.454a1,1,0,0,1,1.414,0l8.566,8.566a1,1,0,0,1,0,1.414L28.434,39.855A1,1,0,0,1,27.727,40.148Zm-7.152-9.566,7.152,7.152L37.734,27.727l-7.152-7.152Z"></path><path d="M34.151,38.6a3.008,3.008,0,0,1-2.135-.883l-1.427-1.427L32,34.872,33.43,36.3a1.02,1.02,0,0,0,1.442,0L36.3,34.872a1.02,1.02,0,0,0,0-1.442L34.872,32l1.414-1.414,1.427,1.427a3.021,3.021,0,0,1,0,4.27l-1.427,1.427A3.009,3.009,0,0,1,34.151,38.6Z"></path><path d="M44.145,48a1,1,0,0,1-.708-.293l-9.279-9.28,1.414-1.414,8.573,8.573,1.441-1.441-8.573-8.573,1.414-1.414,9.28,9.28a1,1,0,0,1,0,1.414l-2.855,2.855A1,1,0,0,1,44.145,48Z"></path><path d="M5,48a5.006,5.006,0,0,1-5-5V5A5.006,5.006,0,0,1,5,0H37a1,1,0,0,1,1,1V15H36V2H5A3,3,0,0,0,2,5V43a3,3,0,0,0,3,3Z"></path><path d="M37,48H5a1,1,0,0,1-1-1V1H6V46H36V44h2v3A1,1,0,0,1,37,48Z"></path><path d="M26,19H12a3,3,0,0,1-3-3V8a3,3,0,0,1,3-3H30a3,3,0,0,1,3,3v4H31V8a1,1,0,0,0-1-1H12a1,1,0,0,0-1,1v8a1,1,0,0,0,1,1H26Z"></path><rect x="14" y="9" width="14" height="2"></rect><rect x="14" y="13" width="11" height="2"></rect></g></svg>